<svg width="500" height="300" viewBox="0 0 500 300" fill="none" xmlns="http://www.w3.org/2000/svg">
<rect width="500" height="300" fill="#FE4E01"/>
<mask id="path-2-outside-1_6_34" maskUnits="userSpaceOnUse" x="98.18" y="124.31" width="304" height="56" fill="black">
<rect fill="white" x="98.18" y="124.31" width="304" height="56"/>
<path d="M266.793 149.024H254.64C253.223 149.024 252.124 147.788 252.29 146.381L254.229 129.953C254.395 128.546 253.296 127.31 251.879 127.31H247.355C246.16 127.31 245.152 128.201 245.006 129.387L242.509 150.008C242.009 154.231 245.308 157.943 249.56 157.943H265.695L263.624 174.776C263.45 176.187 264.551 177.432 265.973 177.432H270.975C272.175 177.432 273.185 176.534 273.326 175.342L278.72 129.953C278.886 128.546 277.787 127.31 276.37 127.31H271.548C270.353 127.31 269.345 128.201 269.199 129.387L266.793 149.024Z"/>
<path d="M143.154 162.195C141.735 162.195 140.635 160.957 140.801 159.548L143.735 134.137C143.901 132.728 142.8 131.49 141.382 131.49H136.852C135.655 131.49 134.646 132.382 134.5 133.57L131.008 163.18C130.507 167.408 133.81 171.125 138.067 171.125H147.305L153.486 171.083C154.686 171.083 155.696 170.185 155.837 168.994L156.327 164.839C156.493 163.432 155.394 162.195 153.977 162.195H143.154Z"/>
<path d="M128.591 131.492C130.007 131.492 131.107 132.729 130.941 134.136L130.466 138.163C130.326 139.354 129.316 140.252 128.116 140.252H118.606C115.01 140.252 111.982 142.941 111.556 146.511L110.604 154.492C110.1 158.716 113.4 162.432 117.654 162.432H124.944C126.361 162.432 127.46 163.669 127.294 165.076L126.833 168.994C126.692 170.185 125.682 171.083 124.482 171.083H115.381C106.88 171.083 100.284 163.664 101.279 155.222L102.599 144.029C103.441 136.88 109.501 131.492 116.7 131.492H128.591Z"/>
<path d="M167.038 171.136H162.01C160.581 171.136 159.475 169.886 159.649 168.467L163.754 133.596C163.901 132.403 164.914 131.508 166.115 131.508H170.962C172.386 131.508 173.49 132.75 173.324 134.165L169.4 169.036C169.259 170.234 168.244 171.136 167.038 171.136Z"/>
<path d="M202.217 131.492C203.634 131.492 204.733 132.729 204.568 134.136L204.093 138.163C203.953 139.354 202.943 140.252 201.743 140.252H192.233C188.637 140.252 185.609 142.941 185.183 146.511L184.231 154.492C183.727 158.716 187.026 162.432 191.281 162.432H198.571C199.988 162.432 201.087 163.669 200.921 165.076L200.459 168.994C200.319 170.185 199.309 171.083 198.109 171.083H189.008C180.507 171.083 173.911 163.664 174.906 155.222L176.225 144.029C177.068 136.88 183.128 131.492 190.327 131.492H202.217Z"/>
<path d="M234.034 131.508C235.458 131.508 236.563 132.75 236.396 134.165L234.982 146.762C234.851 147.942 234.202 149.003 233.21 149.657L232.38 150.205L233.458 150.569C235.241 151.171 236.363 152.935 236.153 154.806L234.552 169.036C234.411 170.234 233.396 171.136 232.19 171.136H228.161C226.732 171.136 225.626 169.886 225.8 168.467L226.82 159.591C226.771 158.188 226.673 157.657 224.904 157.055H215.643L214.354 169.036C214.213 170.234 213.197 171.136 211.991 171.136H206.963C205.534 171.136 204.428 169.886 204.602 168.467L208.708 133.596C208.854 132.403 209.867 131.508 211.068 131.508H215.915C217.339 131.508 218.444 132.75 218.277 134.165L216.623 148.337H222.085L222.157 148.301C224.202 147.278 225.157 146.8 225.8 142.314L226.827 133.596C226.974 132.403 227.986 131.508 229.188 131.508H234.034Z"/>
<path d="M313.333 134.159C313.499 132.752 312.4 131.516 310.983 131.516H299.093C291.894 131.516 285.834 136.903 284.991 144.053L283.672 155.246C282.677 163.688 289.273 171.107 297.773 171.107H306.875C308.075 171.107 309.085 170.209 309.225 169.017L309.687 165.099C309.853 163.692 308.754 162.455 307.337 162.455H300.046C295.792 162.455 292.493 158.739 292.997 154.515L293.949 146.534C294.375 142.964 297.403 140.276 300.998 140.276H310.508C311.708 140.276 312.718 139.378 312.859 138.186L313.333 134.159Z"/>
<path d="M334.816 162.219H325.546C324.128 162.219 323.027 160.98 323.193 159.572L326.127 134.16C326.293 132.751 325.193 131.513 323.774 131.513H319.244C318.047 131.513 317.039 132.406 316.892 133.593L313.4 163.204C312.899 167.432 316.202 171.148 320.459 171.148H341.567C342.769 171.148 343.78 170.249 343.92 169.056L347.751 134.16C347.917 132.751 346.816 131.513 345.398 131.513H340.57C339.373 131.513 338.364 132.406 338.218 133.593L334.816 162.219Z"/>
<path d="M386.023 134.154L385.548 138.187C385.407 139.38 384.396 140.279 383.195 140.279L373.009 140.278L369.768 169.082C369.627 170.279 368.612 171.182 367.406 171.182H362.377C360.948 171.182 359.842 169.931 360.017 168.513L363.341 140.278L353.568 140.278C352.149 140.278 351.048 139.04 351.214 137.631L351.689 133.6C351.83 132.407 352.841 131.508 354.043 131.508L383.67 131.508C385.089 131.508 386.189 132.746 386.023 134.154Z"/>
<path d="M387.74 171.16H392.768C393.974 171.16 394.99 170.257 395.131 169.06L399.054 134.188C399.221 132.774 398.116 131.531 396.692 131.531H391.846C390.644 131.531 389.632 132.427 389.485 133.619L385.379 168.491C385.205 169.909 386.311 171.16 387.74 171.16Z"/>
</mask>
<path d="M266.793 149.024H254.64C253.223 149.024 252.124 147.788 252.29 146.381L254.229 129.953C254.395 128.546 253.296 127.31 251.879 127.31H247.355C246.16 127.31 245.152 128.201 245.006 129.387L242.509 150.008C242.009 154.231 245.308 157.943 249.56 157.943H265.695L263.624 174.776C263.45 176.187 264.551 177.432 265.973 177.432H270.975C272.175 177.432 273.185 176.534 273.326 175.342L278.72 129.953C278.886 128.546 277.787 127.31 276.37 127.31H271.548C270.353 127.31 269.345 128.201 269.199 129.387L266.793 149.024Z" fill="black"/>
<path d="M143.154 162.195C141.735 162.195 140.635 160.957 140.801 159.548L143.735 134.137C143.901 132.728 142.8 131.49 141.382 131.49H136.852C135.655 131.49 134.646 132.382 134.5 133.57L131.008 163.18C130.507 167.408 133.81 171.125 138.067 171.125H147.305L153.486 171.083C154.686 171.083 155.696 170.185 155.837 168.994L156.327 164.839C156.493 163.432 155.394 162.195 153.977 162.195H143.154Z" fill="black"/>
<path d="M128.591 131.492C130.007 131.492 131.107 132.729 130.941 134.136L130.466 138.163C130.326 139.354 129.316 140.252 128.116 140.252H118.606C115.01 140.252 111.982 142.941 111.556 146.511L110.604 154.492C110.1 158.716 113.4 162.432 117.654 162.432H124.944C126.361 162.432 127.46 163.669 127.294 165.076L126.833 168.994C126.692 170.185 125.682 171.083 124.482 171.083H115.381C106.88 171.083 100.284 163.664 101.279 155.222L102.599 144.029C103.441 136.88 109.501 131.492 116.7 131.492H128.591Z" fill="black"/>
<path d="M167.038 171.136H162.01C160.581 171.136 159.475 169.886 159.649 168.467L163.754 133.596C163.901 132.403 164.914 131.508 166.115 131.508H170.962C172.386 131.508 173.49 132.75 173.324 134.165L169.4 169.036C169.259 170.234 168.244 171.136 167.038 171.136Z" fill="black"/>
<path d="M202.217 131.492C203.634 131.492 204.733 132.729 204.568 134.136L204.093 138.163C203.953 139.354 202.943 140.252 201.743 140.252H192.233C188.637 140.252 185.609 142.941 185.183 146.511L184.231 154.492C183.727 158.716 187.026 162.432 191.281 162.432H198.571C199.988 162.432 201.087 163.669 200.921 165.076L200.459 168.994C200.319 170.185 199.309 171.083 198.109 171.083H189.008C180.507 171.083 173.911 163.664 174.906 155.222L176.225 144.029C177.068 136.88 183.128 131.492 190.327 131.492H202.217Z" fill="black"/>
<path d="M234.034 131.508C235.458 131.508 236.563 132.75 236.396 134.165L234.982 146.762C234.851 147.942 234.202 149.003 233.21 149.657L232.38 150.205L233.458 150.569C235.241 151.171 236.363 152.935 236.153 154.806L234.552 169.036C234.411 170.234 233.396 171.136 232.19 171.136H228.161C226.732 171.136 225.626 169.886 225.8 168.467L226.82 159.591C226.771 158.188 226.673 157.657 224.904 157.055H215.643L214.354 169.036C214.213 170.234 213.197 171.136 211.991 171.136H206.963C205.534 171.136 204.428 169.886 204.602 168.467L208.708 133.596C208.854 132.403 209.867 131.508 211.068 131.508H215.915C217.339 131.508 218.444 132.75 218.277 134.165L216.623 148.337H222.085L222.157 148.301C224.202 147.278 225.157 146.8 225.8 142.314L226.827 133.596C226.974 132.403 227.986 131.508 229.188 131.508H234.034Z" fill="black"/>
<path d="M313.333 134.159C313.499 132.752 312.4 131.516 310.983 131.516H299.093C291.894 131.516 285.834 136.903 284.991 144.053L283.672 155.246C282.677 163.688 289.273 171.107 297.773 171.107H306.875C308.075 171.107 309.085 170.209 309.225 169.017L309.687 165.099C309.853 163.692 308.754 162.455 307.337 162.455H300.046C295.792 162.455 292.493 158.739 292.997 154.515L293.949 146.534C294.375 142.964 297.403 140.276 300.998 140.276H310.508C311.708 140.276 312.718 139.378 312.859 138.186L313.333 134.159Z" fill="black"/>
<path d="M334.816 162.219H325.546C324.128 162.219 323.027 160.98 323.193 159.572L326.127 134.16C326.293 132.751 325.193 131.513 323.774 131.513H319.244C318.047 131.513 317.039 132.406 316.892 133.593L313.4 163.204C312.899 167.432 316.202 171.148 320.459 171.148H341.567C342.769 171.148 343.78 170.249 343.92 169.056L347.751 134.16C347.917 132.751 346.816 131.513 345.398 131.513H340.57C339.373 131.513 338.364 132.406 338.218 133.593L334.816 162.219Z" fill="black"/>
<path d="M386.023 134.154L385.548 138.187C385.407 139.38 384.396 140.279 383.195 140.279L373.009 140.278L369.768 169.082C369.627 170.279 368.612 171.182 367.406 171.182H362.377C360.948 171.182 359.842 169.931 360.017 168.513L363.341 140.278L353.568 140.278C352.149 140.278 351.048 139.04 351.214 137.631L351.689 133.6C351.83 132.407 352.841 131.508 354.043 131.508L383.67 131.508C385.089 131.508 386.189 132.746 386.023 134.154Z" fill="black"/>
<path d="M387.74 171.16H392.768C393.974 171.16 394.99 170.257 395.131 169.06L399.054 134.188C399.221 132.774 398.116 131.531 396.692 131.531H391.846C390.644 131.531 389.632 132.427 389.485 133.619L385.379 168.491C385.205 169.909 386.311 171.16 387.74 171.16Z" fill="black"/>
<path d="M266.793 149.024H254.64C253.223 149.024 252.124 147.788 252.29 146.381L254.229 129.953C254.395 128.546 253.296 127.31 251.879 127.31H247.355C246.16 127.31 245.152 128.201 245.006 129.387L242.509 150.008C242.009 154.231 245.308 157.943 249.56 157.943H265.695L263.624 174.776C263.45 176.187 264.551 177.432 265.973 177.432H270.975C272.175 177.432 273.185 176.534 273.326 175.342L278.72 129.953C278.886 128.546 277.787 127.31 276.37 127.31H271.548C270.353 127.31 269.345 128.201 269.199 129.387L266.793 149.024Z" stroke="black" stroke-width="4.5" mask="url(#path-2-outside-1_6_34)"/>
<path d="M143.154 162.195C141.735 162.195 140.635 160.957 140.801 159.548L143.735 134.137C143.901 132.728 142.8 131.49 141.382 131.49H136.852C135.655 131.49 134.646 132.382 134.5 133.57L131.008 163.18C130.507 167.408 133.81 171.125 138.067 171.125H147.305L153.486 171.083C154.686 171.083 155.696 170.185 155.837 168.994L156.327 164.839C156.493 163.432 155.394 162.195 153.977 162.195H143.154Z" stroke="black" stroke-width="4.5" mask="url(#path-2-outside-1_6_34)"/>
<path d="M128.591 131.492C130.007 131.492 131.107 132.729 130.941 134.136L130.466 138.163C130.326 139.354 129.316 140.252 128.116 140.252H118.606C115.01 140.252 111.982 142.941 111.556 146.511L110.604 154.492C110.1 158.716 113.4 162.432 117.654 162.432H124.944C126.361 162.432 127.46 163.669 127.294 165.076L126.833 168.994C126.692 170.185 125.682 171.083 124.482 171.083H115.381C106.88 171.083 100.284 163.664 101.279 155.222L102.599 144.029C103.441 136.88 109.501 131.492 116.7 131.492H128.591Z" stroke="black" stroke-width="4.5" mask="url(#path-2-outside-1_6_34)"/>
<path d="M167.038 171.136H162.01C160.581 171.136 159.475 169.886 159.649 168.467L163.754 133.596C163.901 132.403 164.914 131.508 166.115 131.508H170.962C172.386 131.508 173.49 132.75 173.324 134.165L169.4 169.036C169.259 170.234 168.244 171.136 167.038 171.136Z" stroke="black" stroke-width="4.5" mask="url(#path-2-outside-1_6_34)"/>
<path d="M202.217 131.492C203.634 131.492 204.733 132.729 204.568 134.136L204.093 138.163C203.953 139.354 202.943 140.252 201.743 140.252H192.233C188.637 140.252 185.609 142.941 185.183 146.511L184.231 154.492C183.727 158.716 187.026 162.432 191.281 162.432H198.571C199.988 162.432 201.087 163.669 200.921 165.076L200.459 168.994C200.319 170.185 199.309 171.083 198.109 171.083H189.008C180.507 171.083 173.911 163.664 174.906 155.222L176.225 144.029C177.068 136.88 183.128 131.492 190.327 131.492H202.217Z" stroke="black" stroke-width="4.5" mask="url(#path-2-outside-1_6_34)"/>
<path d="M234.034 131.508C235.458 131.508 236.563 132.75 236.396 134.165L234.982 146.762C234.851 147.942 234.202 149.003 233.21 149.657L232.38 150.205L233.458 150.569C235.241 151.171 236.363 152.935 236.153 154.806L234.552 169.036C234.411 170.234 233.396 171.136 232.19 171.136H228.161C226.732 171.136 225.626 169.886 225.8 168.467L226.82 159.591C226.771 158.188 226.673 157.657 224.904 157.055H215.643L214.354 169.036C214.213 170.234 213.197 171.136 211.991 171.136H206.963C205.534 171.136 204.428 169.886 204.602 168.467L208.708 133.596C208.854 132.403 209.867 131.508 211.068 131.508H215.915C217.339 131.508 218.444 132.75 218.277 134.165L216.623 148.337H222.085L222.157 148.301C224.202 147.278 225.157 146.8 225.8 142.314L226.827 133.596C226.974 132.403 227.986 131.508 229.188 131.508H234.034Z" stroke="black" stroke-width="4.5" mask="url(#path-2-outside-1_6_34)"/>
<path d="M313.333 134.159C313.499 132.752 312.4 131.516 310.983 131.516H299.093C291.894 131.516 285.834 136.903 284.991 144.053L283.672 155.246C282.677 163.688 289.273 171.107 297.773 171.107H306.875C308.075 171.107 309.085 170.209 309.225 169.017L309.687 165.099C309.853 163.692 308.754 162.455 307.337 162.455H300.046C295.792 162.455 292.493 158.739 292.997 154.515L293.949 146.534C294.375 142.964 297.403 140.276 300.998 140.276H310.508C311.708 140.276 312.718 139.378 312.859 138.186L313.333 134.159Z" stroke="black" stroke-width="4.5" mask="url(#path-2-outside-1_6_34)"/>
<path d="M334.816 162.219H325.546C324.128 162.219 323.027 160.98 323.193 159.572L326.127 134.16C326.293 132.751 325.193 131.513 323.774 131.513H319.244C318.047 131.513 317.039 132.406 316.892 133.593L313.4 163.204C312.899 167.432 316.202 171.148 320.459 171.148H341.567C342.769 171.148 343.78 170.249 343.92 169.056L347.751 134.16C347.917 132.751 346.816 131.513 345.398 131.513H340.57C339.373 131.513 338.364 132.406 338.218 133.593L334.816 162.219Z" stroke="black" stroke-width="4.5" mask="url(#path-2-outside-1_6_34)"/>
<path d="M386.023 134.154L385.548 138.187C385.407 139.38 384.396 140.279 383.195 140.279L373.009 140.278L369.768 169.082C369.627 170.279 368.612 171.182 367.406 171.182H362.377C360.948 171.182 359.842 169.931 360.017 168.513L363.341 140.278L353.568 140.278C352.149 140.278 351.048 139.04 351.214 137.631L351.689 133.6C351.83 132.407 352.841 131.508 354.043 131.508L383.67 131.508C385.089 131.508 386.189 132.746 386.023 134.154Z" stroke="black" stroke-width="4.5" mask="url(#path-2-outside-1_6_34)"/>
<path d="M387.74 171.16H392.768C393.974 171.16 394.99 170.257 395.131 169.06L399.054 134.188C399.221 132.774 398.116 131.531 396.692 131.531H391.846C390.644 131.531 389.632 132.427 389.485 133.619L385.379 168.491C385.205 169.909 386.311 171.16 387.74 171.16Z" stroke="black" stroke-width="4.5" mask="url(#path-2-outside-1_6_34)"/>
<g filter="url(#filter0_d_6_34)">
<path d="M128.576 131.765C128.741 130.358 127.642 129.121 126.225 129.121H114.335C107.136 129.121 101.076 134.509 100.233 141.658L98.9143 152.851C97.9193 161.293 104.515 168.712 113.016 168.712H122.117C123.317 168.712 124.327 167.814 124.467 166.623L124.929 162.705C125.095 161.298 123.996 160.061 122.579 160.061H115.289C111.034 160.061 107.735 156.345 108.239 152.121L109.191 144.14C109.617 140.57 112.645 137.881 116.241 137.881H125.751C126.951 137.881 127.961 136.983 128.101 135.792L128.576 131.765Z" fill="white"/>
<path d="M126.225 127.996C128.315 127.996 129.937 129.821 129.693 131.897L129.218 135.923C129.011 137.681 127.521 139.006 125.75 139.006H116.241C113.215 139.006 110.666 141.269 110.308 144.274L109.356 152.254C108.932 155.809 111.708 158.936 115.288 158.936H122.579C124.67 158.936 126.291 160.76 126.046 162.836L125.584 166.754C125.377 168.512 123.888 169.837 122.118 169.837H113.016C103.842 169.837 96.7237 161.831 97.7972 152.72L99.1165 141.527C100.026 133.811 106.566 127.996 114.335 127.996H126.225Z" stroke="black" stroke-width="2.25"/>
</g>
<g filter="url(#filter1_d_6_34)">
<path d="M140.789 159.824H146.039H151.612C153.029 159.824 154.128 161.061 153.962 162.468L153.471 166.623C153.331 167.814 152.321 168.712 151.121 168.712L144.94 168.754H135.702C131.444 168.754 128.142 165.037 128.643 160.809L132.135 131.199C132.281 130.011 133.29 129.119 134.487 129.119H139.016C140.435 129.119 141.536 130.357 141.37 131.766L138.435 157.177C138.269 158.586 139.37 159.824 140.789 159.824Z" fill="white"/>
<path d="M139.016 127.994C141.108 127.994 142.732 129.82 142.487 131.897L139.553 157.306L139.552 157.309C139.465 158.049 140.044 158.699 140.789 158.699H151.612C153.637 158.699 155.223 160.411 155.097 162.406L155.08 162.599L154.588 166.755C154.381 168.51 152.895 169.833 151.127 169.837L151.128 169.838L144.948 169.879L144.94 169.88V169.879H135.702C130.771 169.879 126.946 165.574 127.526 160.677L131.017 131.067L131.018 131.061C131.234 129.31 132.722 127.994 134.487 127.994H139.016Z" stroke="black" stroke-width="2.25"/>
</g>
<g filter="url(#filter2_d_6_34)">
<path d="M164.673 168.765H159.645C158.216 168.765 157.109 167.515 157.284 166.096L161.389 131.225C161.536 130.032 162.549 129.137 163.75 129.137H168.596C170.02 129.137 171.125 130.379 170.959 131.794L167.035 166.665C166.894 167.863 165.879 168.765 164.673 168.765Z" fill="white"/>
<path d="M168.597 128.012C170.694 128.012 172.322 129.843 172.076 131.926L172.075 131.925L168.153 166.791L168.152 166.797C167.945 168.561 166.449 169.891 164.673 169.891H159.645C157.54 169.891 155.91 168.048 156.167 165.959L160.272 131.093L160.273 131.087C160.489 129.331 161.981 128.012 163.75 128.012H168.597Z" stroke="black" stroke-width="2.25"/>
</g>
<g filter="url(#filter3_d_6_34)">
<path d="M202.202 131.765C202.368 130.358 201.269 129.121 199.852 129.121H187.962C180.763 129.121 174.703 134.509 173.86 141.658L172.541 152.851C171.546 161.293 178.142 168.712 186.642 168.712H195.744C196.944 168.712 197.954 167.814 198.094 166.623L198.556 162.705C198.722 161.298 197.623 160.061 196.206 160.061H188.915C184.661 160.061 181.362 156.345 181.866 152.121L182.818 144.14C183.244 140.57 186.272 137.881 189.867 137.881H199.378C200.577 137.881 201.587 136.983 201.728 135.792L202.202 131.765Z" fill="white"/>
<path d="M199.852 127.996C201.942 127.996 203.564 129.821 203.319 131.897L202.845 135.923C202.638 137.681 201.147 139.006 199.377 139.006H189.867C186.841 139.006 184.293 141.269 183.935 144.274L182.983 152.254C182.559 155.809 185.335 158.936 188.915 158.936H196.206C198.296 158.936 199.918 160.76 199.673 162.836L199.211 166.754C199.004 168.512 197.514 169.837 195.744 169.837H186.643C177.469 169.837 170.35 161.831 171.424 152.72L172.743 141.527C173.653 133.811 180.193 127.996 187.962 127.996H199.852Z" stroke="black" stroke-width="2.25"/>
</g>
<g filter="url(#filter4_d_6_34)">
<path d="M209.626 168.765H204.598C203.169 168.765 202.063 167.515 202.237 166.096L206.343 131.225C206.489 130.032 207.502 129.137 208.703 129.137H213.55C214.974 129.137 216.079 130.379 215.912 131.794L214.258 145.966H219.719C221.814 144.918 222.784 144.482 223.435 139.943L224.462 131.225C224.608 130.032 225.621 129.137 226.822 129.137H231.669C233.093 129.137 234.198 130.379 234.031 131.794L233.05 140.512L232.617 144.391C232.486 145.571 231.836 146.632 230.845 147.286L230.015 147.834L231.092 148.198C232.876 148.8 233.998 150.564 233.788 152.435L232.187 166.665C232.045 167.863 231.03 168.765 229.824 168.765H225.796C224.367 168.765 223.261 167.515 223.435 166.096L224.455 157.22C224.406 155.817 224.308 155.286 222.539 154.684H213.277L211.989 166.665C211.847 167.863 210.832 168.765 209.626 168.765Z" fill="white"/>
<path d="M213.55 128.012C215.647 128.012 217.275 129.843 217.03 131.926L215.522 144.842H219.448C220.387 144.368 220.841 144.109 221.208 143.602C221.622 143.032 221.998 142.027 222.319 139.797L223.344 131.093L223.345 131.087C223.561 129.331 225.053 128.012 226.823 128.012H231.669C233.764 128.012 235.389 129.839 235.148 131.919L235.149 131.92L234.168 140.638L233.736 144.516C233.608 145.656 233.103 146.708 232.318 147.517C234.09 148.508 235.139 150.483 234.906 152.56L233.305 166.791L233.304 166.797C233.096 168.561 231.601 169.891 229.824 169.891H225.796C223.691 169.891 222.062 168.048 222.319 165.959L223.326 157.185C223.299 156.485 223.249 156.342 223.201 156.269C223.173 156.226 223.045 156.064 222.344 155.81H214.287L213.107 166.786L213.106 166.797C212.898 168.561 211.403 169.891 209.626 169.891H204.598C202.493 169.891 200.863 168.048 201.12 165.959L205.225 131.094L205.226 131.088C205.442 129.332 206.934 128.012 208.703 128.012H213.55Z" stroke="black" stroke-width="2.25"/>
</g>
<g filter="url(#filter5_d_6_34)">
<path d="M252.275 146.653H264.427L266.834 127.017C266.98 125.83 267.988 124.939 269.183 124.939H274.005C275.422 124.939 276.521 126.175 276.355 127.583L270.96 172.971C270.82 174.163 269.81 175.061 268.61 175.061H263.607C262.186 175.061 261.085 173.816 261.259 172.405L263.33 155.572H247.194C242.942 155.572 239.644 151.86 240.144 147.637L242.641 127.017C242.787 125.83 243.794 124.939 244.99 124.939H249.514C250.931 124.939 252.03 126.175 251.864 127.583L249.925 144.01C249.759 145.417 250.858 146.653 252.275 146.653Z" fill="white"/>
<path d="M249.514 123.814C251.539 123.814 253.124 125.526 252.999 127.52L252.982 127.714L251.042 144.141C250.955 144.879 251.531 145.528 252.275 145.528H263.432L265.718 126.879L265.741 126.716C266.026 125.048 267.475 123.814 269.183 123.814H274.005C276.095 123.814 277.717 125.639 277.473 127.714L277.472 127.715L272.077 173.104C271.87 174.862 270.38 176.186 268.611 176.186H263.608C261.51 176.186 259.886 174.35 260.142 172.268L262.058 156.697H247.194C242.269 156.697 238.447 152.396 239.027 147.504L239.027 147.502L241.524 126.881L241.525 126.879C241.74 125.129 243.226 123.814 244.989 123.814H249.514Z" stroke="black" stroke-width="2.25"/>
</g>
<g filter="url(#filter6_d_6_34)">
<path d="M310.968 131.788C311.134 130.381 310.035 129.145 308.618 129.145H296.727C289.528 129.145 283.469 134.532 282.626 141.682L281.307 152.875C280.312 161.317 286.908 168.736 295.408 168.736H304.51C305.71 168.736 306.72 167.838 306.86 166.646L307.322 162.728C307.488 161.321 306.388 160.085 304.972 160.085H297.681C293.427 160.085 290.128 156.368 290.632 152.144L291.584 144.163C292.01 140.593 295.038 137.905 298.633 137.905H308.143C309.343 137.905 310.353 137.007 310.494 135.815L310.968 131.788Z" fill="white"/>
<path d="M308.617 128.02C310.708 128.02 312.33 129.844 312.085 131.92L311.611 135.946C311.403 137.705 309.913 139.029 308.143 139.029H298.633C295.607 139.03 293.059 141.292 292.7 144.297L291.748 152.278C291.324 155.832 294.101 158.959 297.681 158.959H304.972C307.062 158.959 308.683 160.784 308.439 162.86L307.977 166.778C307.77 168.535 306.28 169.86 304.51 169.861H295.408C286.234 169.861 279.116 161.854 280.19 152.743L281.509 141.55C282.419 133.834 288.958 128.02 296.728 128.02H308.617Z" stroke="black" stroke-width="2.25"/>
</g>
<g filter="url(#filter7_d_6_34)">
<path d="M323.181 159.848H332.451L335.853 131.222C335.999 130.035 337.008 129.142 338.205 129.142H343.033C344.451 129.142 345.552 130.38 345.386 131.789L341.555 166.685C341.415 167.878 340.403 168.778 339.202 168.778H334.678C333.254 168.778 331.352 168.778 331.352 168.778H318.094C313.837 168.778 310.534 165.061 311.035 160.833L314.527 131.222C314.673 130.035 315.682 129.142 316.879 129.142H321.409C322.828 129.142 323.928 130.38 323.762 131.789L320.828 157.201C320.662 158.61 321.763 159.848 323.181 159.848Z" fill="white"/>
<path d="M321.409 128.017C323.501 128.017 325.124 129.843 324.879 131.921L321.946 157.33L321.945 157.333C321.858 158.072 322.436 158.722 323.181 158.722H331.452L334.736 131.09L334.737 131.085C334.952 129.333 336.44 128.017 338.204 128.017H343.033C345.121 128.017 346.742 129.837 346.503 131.911L346.504 131.912L342.673 166.808L342.672 166.817C342.465 168.576 340.974 169.902 339.203 169.902H318.094C313.163 169.902 309.338 165.598 309.918 160.701L313.41 131.091L313.411 131.085C313.626 129.333 315.114 128.017 316.879 128.017H321.409Z" stroke="black" stroke-width="2.25"/>
</g>
<g filter="url(#filter8_d_6_34)">
<path d="M383.658 131.784L383.183 135.816C383.042 137.009 382.031 137.908 380.83 137.908L370.643 137.907L367.403 166.711C367.262 167.908 366.246 168.811 365.041 168.811H360.012C358.583 168.811 357.477 167.56 357.651 166.142L360.975 137.907L351.202 137.907C349.783 137.907 348.682 136.669 348.848 135.26L349.324 131.229C349.465 130.036 350.476 129.137 351.678 129.137L381.305 129.137C382.723 129.137 383.824 130.375 383.658 131.784Z" fill="white"/>
<path d="M381.305 128.012L381.5 128.017C383.497 128.126 385.012 129.902 384.775 131.915L384.3 135.947C384.092 137.707 382.601 139.033 380.83 139.033L371.648 139.032L368.52 166.837V166.843C368.312 168.607 366.817 169.935 365.041 169.935H360.013C357.908 169.935 356.278 168.094 356.535 166.005L359.71 139.031H351.202V139.032C349.11 139.032 347.487 137.207 347.731 135.129L348.207 131.097C348.414 129.337 349.906 128.012 351.678 128.012H381.305Z" stroke="black" stroke-width="2.25"/>
</g>
<g filter="url(#filter9_d_6_34)">
<path d="M390.403 168.789H385.375C383.946 168.789 382.84 167.538 383.014 166.12L387.12 131.248C387.266 130.056 388.279 129.16 389.48 129.16H394.327C395.751 129.16 396.856 130.403 396.689 131.817L392.766 166.689C392.624 167.886 391.609 168.789 390.403 168.789Z" fill="white"/>
<path d="M394.327 128.035C396.424 128.035 398.052 129.866 397.807 131.949L397.806 131.948L393.884 166.814L393.883 166.82C393.675 168.584 392.18 169.914 390.403 169.914H385.375C383.27 169.914 381.64 168.071 381.897 165.982L386.002 131.116L386.003 131.11C386.219 129.354 387.711 128.035 389.48 128.035H394.327Z" stroke="black" stroke-width="2.25"/>
</g>
<path d="M252.275 146.653H249.275C247.858 146.653 246.759 145.417 246.925 144.01L248.864 127.583C249.03 126.175 247.931 124.939 246.514 124.939H249.514C250.931 124.939 252.03 126.175 251.864 127.583L249.925 144.01C249.759 145.417 250.858 146.653 252.275 146.653Z" fill="black" fill-opacity="0.1"/>
<path d="M271.005 124.939C272.422 124.939 273.521 126.175 273.355 127.583L267.96 172.971C267.82 174.163 266.81 175.061 265.61 175.061H268.61C269.81 175.061 270.82 174.163 270.96 172.971L276.355 127.583C276.521 126.175 275.422 124.939 274.005 124.939H271.005Z" fill="black" fill-opacity="0.1"/>
<path d="M140.789 159.824H137.789C136.37 159.824 135.269 158.586 135.435 157.177L138.37 131.766C138.536 130.357 137.435 129.119 136.016 129.119H139.016C140.435 129.119 141.536 130.357 141.37 131.766L138.435 157.177C138.269 158.586 139.37 159.824 140.789 159.824Z" fill="black" fill-opacity="0.1"/>
<path d="M148.612 159.824C150.029 159.824 151.128 161.061 150.962 162.468L150.471 166.623C150.331 167.814 149.321 168.712 148.121 168.712L141.94 168.754H144.94L151.121 168.712C152.321 168.712 153.331 167.814 153.471 166.623L153.962 162.468C154.128 161.061 153.029 159.824 151.612 159.824H148.612Z" fill="black" fill-opacity="0.1"/>
<path d="M123.225 129.121C124.642 129.121 125.741 130.358 125.576 131.765L125.101 135.792C124.961 136.983 123.951 137.881 122.751 137.881H125.751C126.951 137.881 127.961 136.983 128.101 135.792L128.576 131.765C128.741 130.358 127.642 129.121 126.225 129.121H123.225Z" fill="black" fill-opacity="0.1"/>
<path d="M119.117 168.712H122.117C123.317 168.712 124.327 167.814 124.467 166.623L124.929 162.705C125.095 161.298 123.996 160.061 122.579 160.061H119.579C120.996 160.061 122.095 161.298 121.929 162.705L121.467 166.623C121.327 167.814 120.317 168.712 119.117 168.712Z" fill="black" fill-opacity="0.1"/>
<path d="M115.289 160.061C111.034 160.061 107.735 156.345 108.239 152.121L109.191 144.14C109.617 140.57 112.645 137.881 116.241 137.881H113.241C109.645 137.881 106.617 140.57 106.191 144.14L105.239 152.121C104.735 156.345 108.034 160.061 112.289 160.061H115.289Z" fill="black" fill-opacity="0.1"/>
<path d="M165.596 129.137C167.02 129.137 168.125 130.379 167.959 131.794L164.035 166.665C163.894 167.863 162.879 168.765 161.673 168.765H164.673C165.879 168.765 166.894 167.863 167.035 166.665L170.959 131.794C171.125 130.379 170.02 129.137 168.596 129.137H165.596Z" fill="black" fill-opacity="0.1"/>
<path d="M196.852 129.121C198.269 129.121 199.368 130.358 199.202 131.765L198.728 135.792C198.587 136.983 197.577 137.881 196.378 137.881H199.378C200.577 137.881 201.587 136.983 201.728 135.792L202.202 131.765C202.368 130.358 201.269 129.121 199.852 129.121H196.852Z" fill="black" fill-opacity="0.1"/>
<path d="M192.744 168.712H195.744C196.944 168.712 197.954 167.814 198.094 166.623L198.556 162.705C198.722 161.298 197.623 160.061 196.206 160.061H193.206C194.623 160.061 195.722 161.298 195.556 162.705L195.094 166.623C194.954 167.814 193.944 168.712 192.744 168.712Z" fill="black" fill-opacity="0.1"/>
<path d="M188.915 160.061C184.661 160.061 181.362 156.345 181.866 152.121L182.818 144.14C183.244 140.57 186.272 137.881 189.867 137.881H186.867C183.272 137.881 180.244 140.57 179.818 144.14L178.866 152.121C178.362 156.345 181.661 160.061 185.915 160.061H188.915Z" fill="black" fill-opacity="0.1"/>
<path d="M206.626 168.765H209.626C210.832 168.765 211.847 167.863 211.988 166.665L213.277 154.684H210.277L208.988 166.665C208.847 167.863 207.832 168.765 206.626 168.765Z" fill="black" fill-opacity="0.1"/>
<path d="M226.824 168.765H229.824C231.03 168.765 232.045 167.863 232.187 166.665L233.788 152.435C233.998 150.564 232.876 148.8 231.092 148.198L230.015 147.834L230.845 147.286C231.836 146.632 232.486 145.571 232.617 144.391L234.031 131.794C234.198 130.379 233.093 129.137 231.669 129.137H228.669C230.093 129.137 231.198 130.379 231.031 131.794L229.617 144.391C229.486 145.571 228.836 146.632 227.845 147.286L227.015 147.834L228.092 148.198C229.876 148.8 230.998 150.564 230.788 152.435L229.187 166.665C229.045 167.863 228.03 168.765 226.824 168.765Z" fill="black" fill-opacity="0.1"/>
<path d="M214.258 145.966L215.912 131.794C216.079 130.379 214.974 129.137 213.55 129.137H210.55C211.974 129.137 213.079 130.379 212.912 131.794L211.258 145.966H214.258Z" fill="black" fill-opacity="0.1"/>
<path d="M307.968 131.788C308.134 130.381 307.035 129.145 305.618 129.145H308.618C310.035 129.145 311.134 130.381 310.968 131.788L310.494 135.815C310.353 137.007 309.343 137.905 308.143 137.905H305.143C306.343 137.905 307.353 137.007 307.494 135.815L307.968 131.788Z" fill="black" fill-opacity="0.1"/>
<path d="M298.633 137.905H295.633C292.037 137.905 289.01 140.593 288.584 144.163L287.632 152.144C287.128 156.368 290.427 160.085 294.681 160.085H297.681C293.427 160.085 290.128 156.368 290.632 152.144L291.584 144.163C292.01 140.593 295.037 137.905 298.633 137.905Z" fill="black" fill-opacity="0.1"/>
<path d="M301.972 160.085C303.388 160.085 304.488 161.321 304.322 162.728L303.86 166.646C303.72 167.838 302.71 168.736 301.51 168.736H304.51C305.71 168.736 306.72 167.838 306.86 166.646L307.322 162.728C307.488 161.321 306.388 160.085 304.972 160.085H301.972Z" fill="black" fill-opacity="0.1"/>
<path d="M323.181 159.848H320.181C318.763 159.848 317.662 158.61 317.828 157.201L320.762 131.789C320.928 130.38 319.827 129.142 318.409 129.142H321.409C322.827 129.142 323.928 130.38 323.762 131.789L320.828 157.201C320.662 158.61 321.763 159.848 323.181 159.848Z" fill="black" fill-opacity="0.1"/>
<path d="M340.033 129.142C341.451 129.142 342.552 130.38 342.386 131.789L338.555 166.685C338.415 167.878 337.403 168.778 336.202 168.778H339.202C340.403 168.778 341.415 167.878 341.555 166.685L345.386 131.789C345.552 130.38 344.451 129.142 343.033 129.142H340.033Z" fill="black" fill-opacity="0.1"/>
<path d="M380.658 131.784L380.183 135.816C380.043 137.001 379.043 137.896 377.852 137.908L380.83 137.908C382.031 137.908 383.042 137.009 383.183 135.816L383.658 131.784C383.824 130.375 382.723 129.137 381.305 129.137L378.308 129.137C379.725 129.138 380.824 130.376 380.658 131.784Z" fill="black" fill-opacity="0.1"/>
<path d="M370.643 137.907H367.643L364.403 166.711C364.262 167.908 363.246 168.811 362.04 168.811H365.04C366.246 168.811 367.262 167.908 367.403 166.711L370.643 137.907Z" fill="black" fill-opacity="0.1"/>
<path d="M387.403 168.789H390.403C391.609 168.789 392.624 167.886 392.766 166.689L396.689 131.817C396.856 130.403 395.751 129.16 394.327 129.16H391.327C392.751 129.16 393.856 130.403 393.689 131.817L389.766 166.689C389.624 167.886 388.609 168.789 387.403 168.789Z" fill="black" fill-opacity="0.1"/>
<defs>
<filter id="filter0_d_6_34" x="96.5645" y="126.871" width="36.6475" height="46.4604" filterUnits="userSpaceOnUse" color-interpolation-filters="sRGB">
<feFlood flood-opacity="0" result="BackgroundImageFix"/>
<feColorMatrix in="SourceAlpha" type="matrix" values="0 0 0 0 0 0 0 0 0 0 0 0 0 0 0 0 0 0 127 0" result="hardAlpha"/>
<feOffset dx="2.3695" dy="2.3695"/>
<feComposite in2="hardAlpha" operator="out"/>
<feColorMatrix type="matrix" values="0 0 0 0 0 0 0 0 0 0 0 0 0 0 0 0 0 0 1 0"/>
<feBlend mode="normal" in2="BackgroundImageFix" result="effect1_dropShadow_6_34"/>
<feBlend mode="normal" in="SourceGraphic" in2="effect1_dropShadow_6_34" result="shape"/>
</filter>
<filter id="filter1_d_6_34" x="126.342" y="126.869" width="32.2567" height="46.5047" filterUnits="userSpaceOnUse" color-interpolation-filters="sRGB">
<feFlood flood-opacity="0" result="BackgroundImageFix"/>
<feColorMatrix in="SourceAlpha" type="matrix" values="0 0 0 0 0 0 0 0 0 0 0 0 0 0 0 0 0 0 127 0" result="hardAlpha"/>
<feOffset dx="2.3695" dy="2.3695"/>
<feComposite in2="hardAlpha" operator="out"/>
<feColorMatrix type="matrix" values="0 0 0 0 0 0 0 0 0 0 0 0 0 0 0 0 0 0 1 0"/>
<feBlend mode="normal" in2="BackgroundImageFix" result="effect1_dropShadow_6_34"/>
<feBlend mode="normal" in="SourceGraphic" in2="effect1_dropShadow_6_34" result="shape"/>
</filter>
<filter id="filter2_d_6_34" x="155.015" y="126.887" width="20.5796" height="46.4983" filterUnits="userSpaceOnUse" color-interpolation-filters="sRGB">
<feFlood flood-opacity="0" result="BackgroundImageFix"/>
<feColorMatrix in="SourceAlpha" type="matrix" values="0 0 0 0 0 0 0 0 0 0 0 0 0 0 0 0 0 0 127 0" result="hardAlpha"/>
<feOffset dx="2.3695" dy="2.3695"/>
<feComposite in2="hardAlpha" operator="out"/>
<feColorMatrix type="matrix" values="0 0 0 0 0 0 0 0 0 0 0 0 0 0 0 0 0 0 1 0"/>
<feBlend mode="normal" in2="BackgroundImageFix" result="effect1_dropShadow_6_34"/>
<feBlend mode="normal" in="SourceGraphic" in2="effect1_dropShadow_6_34" result="shape"/>
</filter>
<filter id="filter3_d_6_34" x="170.191" y="126.871" width="36.6475" height="46.4604" filterUnits="userSpaceOnUse" color-interpolation-filters="sRGB">
<feFlood flood-opacity="0" result="BackgroundImageFix"/>
<feColorMatrix in="SourceAlpha" type="matrix" values="0 0 0 0 0 0 0 0 0 0 0 0 0 0 0 0 0 0 127 0" result="hardAlpha"/>
<feOffset dx="2.3695" dy="2.3695"/>
<feComposite in2="hardAlpha" operator="out"/>
<feColorMatrix type="matrix" values="0 0 0 0 0 0 0 0 0 0 0 0 0 0 0 0 0 0 1 0"/>
<feBlend mode="normal" in2="BackgroundImageFix" result="effect1_dropShadow_6_34"/>
<feBlend mode="normal" in="SourceGraphic" in2="effect1_dropShadow_6_34" result="shape"/>
</filter>
<filter id="filter4_d_6_34" x="199.969" y="126.887" width="38.6987" height="46.4983" filterUnits="userSpaceOnUse" color-interpolation-filters="sRGB">
<feFlood flood-opacity="0" result="BackgroundImageFix"/>
<feColorMatrix in="SourceAlpha" type="matrix" values="0 0 0 0 0 0 0 0 0 0 0 0 0 0 0 0 0 0 127 0" result="hardAlpha"/>
<feOffset dx="2.3695" dy="2.3695"/>
<feComposite in2="hardAlpha" operator="out"/>
<feColorMatrix type="matrix" values="0 0 0 0 0 0 0 0 0 0 0 0 0 0 0 0 0 0 1 0"/>
<feBlend mode="normal" in2="BackgroundImageFix" result="effect1_dropShadow_6_34"/>
<feBlend mode="normal" in="SourceGraphic" in2="effect1_dropShadow_6_34" result="shape"/>
</filter>
<filter id="filter5_d_6_34" x="237.844" y="122.689" width="43.1479" height="56.9914" filterUnits="userSpaceOnUse" color-interpolation-filters="sRGB">
<feFlood flood-opacity="0" result="BackgroundImageFix"/>
<feColorMatrix in="SourceAlpha" type="matrix" values="0 0 0 0 0 0 0 0 0 0 0 0 0 0 0 0 0 0 127 0" result="hardAlpha"/>
<feOffset dx="2.3695" dy="2.3695"/>
<feComposite in2="hardAlpha" operator="out"/>
<feColorMatrix type="matrix" values="0 0 0 0 0 0 0 0 0 0 0 0 0 0 0 0 0 0 1 0"/>
<feBlend mode="normal" in2="BackgroundImageFix" result="effect1_dropShadow_6_34"/>
<feBlend mode="normal" in="SourceGraphic" in2="effect1_dropShadow_6_34" result="shape"/>
</filter>
<filter id="filter6_d_6_34" x="278.957" y="126.895" width="36.6475" height="46.4604" filterUnits="userSpaceOnUse" color-interpolation-filters="sRGB">
<feFlood flood-opacity="0" result="BackgroundImageFix"/>
<feColorMatrix in="SourceAlpha" type="matrix" values="0 0 0 0 0 0 0 0 0 0 0 0 0 0 0 0 0 0 127 0" result="hardAlpha"/>
<feOffset dx="2.3695" dy="2.3695"/>
<feComposite in2="hardAlpha" operator="out"/>
<feColorMatrix type="matrix" values="0 0 0 0 0 0 0 0 0 0 0 0 0 0 0 0 0 0 1 0"/>
<feBlend mode="normal" in2="BackgroundImageFix" result="effect1_dropShadow_6_34"/>
<feBlend mode="normal" in="SourceGraphic" in2="effect1_dropShadow_6_34" result="shape"/>
</filter>
<filter id="filter7_d_6_34" x="308.734" y="126.892" width="41.2878" height="46.5047" filterUnits="userSpaceOnUse" color-interpolation-filters="sRGB">
<feFlood flood-opacity="0" result="BackgroundImageFix"/>
<feColorMatrix in="SourceAlpha" type="matrix" values="0 0 0 0 0 0 0 0 0 0 0 0 0 0 0 0 0 0 127 0" result="hardAlpha"/>
<feOffset dx="2.3695" dy="2.3695"/>
<feComposite in2="hardAlpha" operator="out"/>
<feColorMatrix type="matrix" values="0 0 0 0 0 0 0 0 0 0 0 0 0 0 0 0 0 0 1 0"/>
<feBlend mode="normal" in2="BackgroundImageFix" result="effect1_dropShadow_6_34"/>
<feBlend mode="normal" in="SourceGraphic" in2="effect1_dropShadow_6_34" result="shape"/>
</filter>
<filter id="filter8_d_6_34" x="346.582" y="126.887" width="41.7128" height="46.5437" filterUnits="userSpaceOnUse" color-interpolation-filters="sRGB">
<feFlood flood-opacity="0" result="BackgroundImageFix"/>
<feColorMatrix in="SourceAlpha" type="matrix" values="0 0 0 0 0 0 0 0 0 0 0 0 0 0 0 0 0 0 127 0" result="hardAlpha"/>
<feOffset dx="2.3695" dy="2.3695"/>
<feComposite in2="hardAlpha" operator="out"/>
<feColorMatrix type="matrix" values="0 0 0 0 0 0 0 0 0 0 0 0 0 0 0 0 0 0 1 0"/>
<feBlend mode="normal" in2="BackgroundImageFix" result="effect1_dropShadow_6_34"/>
<feBlend mode="normal" in="SourceGraphic" in2="effect1_dropShadow_6_34" result="shape"/>
</filter>
<filter id="filter9_d_6_34" x="380.746" y="126.91" width="20.5796" height="46.4983" filterUnits="userSpaceOnUse" color-interpolation-filters="sRGB">
<feFlood flood-opacity="0" result="BackgroundImageFix"/>
<feColorMatrix in="SourceAlpha" type="matrix" values="0 0 0 0 0 0 0 0 0 0 0 0 0 0 0 0 0 0 127 0" result="hardAlpha"/>
<feOffset dx="2.3695" dy="2.3695"/>
<feComposite in2="hardAlpha" operator="out"/>
<feColorMatrix type="matrix" values="0 0 0 0 0 0 0 0 0 0 0 0 0 0 0 0 0 0 1 0"/>
<feBlend mode="normal" in2="BackgroundImageFix" result="effect1_dropShadow_6_34"/>
<feBlend mode="normal" in="SourceGraphic" in2="effect1_dropShadow_6_34" result="shape"/>
</filter>
</defs>
</svg>
