<svg width="300" height="300" viewBox="0 0 300 300" fill="none" xmlns="http://www.w3.org/2000/svg">
<g clip-path="url(#clip0_6_17)">
<rect width="300" height="300" fill="#FE4E01"></rect>
<g filter="url(#filter0_d_6_17)">
<rect x="75" y="110" width="150" height="60" rx="15" fill="#FE4E01"></rect>
<rect x="73.5" y="108.5" width="153" height="63" rx="16.5" stroke="black" stroke-width="3"></rect>
</g>
<rect x="76" y="111" width="148" height="58" rx="14" stroke="#FF7F56" stroke-width="2"></rect>
<path fill-rule="evenodd" clip-rule="evenodd" d="M90 110C81.7157 110 75 116.716 75 125V155C75 163.284 81.7157 170 90 170H210C218.284 170 225 163.284 225 155V125C225 116.716 218.284 110 210 110H90ZM89 112C82.9249 112 78 116.925 78 123V155C78 161.075 82.9249 166 89 166H209C215.075 166 220 161.075 220 155V123C220 116.925 215.075 112 209 112H89Z" fill="black" fill-opacity="0.1"></path>
<g filter="url(#filter1_d_6_17)">
<path d="M118.736 121.379C118.902 119.97 117.801 118.732 116.383 118.732H104.477C97.269 118.732 91.2016 124.127 90.3579 131.285L89.0371 142.492C88.0409 150.945 94.645 158.373 103.156 158.373H112.269C113.471 158.373 114.482 157.474 114.623 156.281L115.085 152.358C115.251 150.949 114.15 149.711 112.732 149.711H105.432C101.173 149.711 97.8692 145.991 98.3738 141.761L99.327 133.77C99.7534 130.195 102.785 127.503 106.385 127.503H115.907C117.109 127.503 118.12 126.604 118.261 125.411L118.736 121.379Z" fill="white"></path>
<path d="M116.383 117.548C118.511 117.548 120.161 119.405 119.912 121.518L119.438 125.55C119.227 127.339 117.709 128.688 115.907 128.688H106.386C103.386 128.688 100.858 130.931 100.503 133.91L99.5498 141.901C99.1295 145.426 101.883 148.526 105.433 148.526H112.731C114.859 148.526 116.511 150.384 116.262 152.497L115.799 156.42C115.588 158.209 114.071 159.558 112.27 159.558H103.156C93.9357 159.558 86.7811 151.511 87.8604 142.354L89.1816 131.146C90.0957 123.391 96.6688 117.548 104.478 117.548H116.383Z" stroke="black" stroke-width="2.3695"></path>
</g>
<path d="M114.383 118.732C115.801 118.732 116.902 119.97 116.736 121.379L116.261 125.411C116.12 126.604 115.109 127.503 113.907 127.503H115.907C117.109 127.503 118.12 126.604 118.261 125.411L118.736 121.379C118.902 119.97 117.801 118.732 116.383 118.732H114.383Z" fill="black" fill-opacity="0.1"></path>
<path d="M110.269 158.373H112.269C113.471 158.373 114.482 157.474 114.623 156.281L115.085 152.358C115.251 150.949 114.15 149.711 112.732 149.711H110.732C112.15 149.711 113.251 150.949 113.085 152.358L112.623 156.281C112.482 157.474 111.471 158.373 110.269 158.373Z" fill="black" fill-opacity="0.1"></path>
<path d="M105.432 149.711C101.173 149.711 97.8692 145.991 98.3738 141.761L99.3269 133.77C99.7533 130.195 102.785 127.503 106.385 127.503H104.385C100.785 127.503 97.7533 130.195 97.3269 133.77L96.3738 141.761C95.8692 145.991 99.1725 149.711 103.432 149.711H105.432Z" fill="black" fill-opacity="0.1"></path>
<g filter="url(#filter2_d_6_17)">
<path d="M131.949 149.443H141.218L144.621 120.818C144.767 119.63 145.776 118.738 146.973 118.738H151.8C153.219 118.738 154.32 119.976 154.154 121.385L150.323 156.281C150.182 157.474 149.171 158.373 147.97 158.373H143.446C142.022 158.373 140.12 158.373 140.12 158.373H126.862C122.605 158.373 119.302 154.656 119.803 150.429L123.295 120.818C123.441 119.63 124.45 118.738 125.647 118.738H130.177C131.595 118.738 132.696 119.976 132.53 121.385L129.596 146.796C129.43 148.205 130.53 149.443 131.949 149.443Z" fill="white"></path>
<path d="M130.176 117.553C132.304 117.553 133.955 119.41 133.707 121.523L130.773 146.932L130.772 146.935C130.689 147.64 131.24 148.259 131.949 148.259H140.166L143.445 120.678V120.674C143.664 118.892 145.177 117.554 146.972 117.553H151.8C153.925 117.553 155.573 119.404 155.331 121.513L151.5 156.411L151.5 156.42C151.289 158.209 149.772 159.558 147.97 159.558H126.862C121.895 159.558 118.042 155.221 118.626 150.289L122.119 120.679V120.674C122.338 118.892 123.852 117.553 125.647 117.553H130.176Z" stroke="black" stroke-width="2.3695"></path>
</g>
<path d="M131.949 149.443H129.949C128.53 149.443 127.43 148.205 127.596 146.796L130.53 121.385C130.696 119.976 129.595 118.738 128.177 118.738H130.177C131.595 118.738 132.696 119.976 132.53 121.385L129.596 146.796C129.43 148.205 130.53 149.443 131.949 149.443Z" fill="black" fill-opacity="0.1"></path>
<path d="M149.8 118.738C151.219 118.738 152.32 119.976 152.154 121.385L148.323 156.281C148.182 157.474 147.171 158.373 145.97 158.373H147.97C149.171 158.373 150.182 157.474 150.323 156.281L154.154 121.385C154.32 119.976 153.219 118.738 151.8 118.738H149.8Z" fill="black" fill-opacity="0.1"></path>
<g filter="url(#filter3_d_6_17)">
<path d="M192.771 121.379L192.295 125.411C192.155 126.604 191.144 127.503 189.942 127.503L179.756 127.503L176.515 156.306C176.374 157.504 175.359 158.407 174.153 158.407H169.125C167.696 158.407 166.59 157.156 166.764 155.738L170.088 127.503L160.315 127.502C158.896 127.502 157.795 126.265 157.961 124.856L158.437 120.824C158.577 119.631 159.589 118.732 160.791 118.732L190.417 118.732C191.836 118.732 192.937 119.97 192.771 121.379Z" fill="white"></path>
<path d="M190.417 117.548C192.545 117.548 194.196 119.404 193.948 121.518L193.472 125.55C193.261 127.339 191.745 128.688 189.943 128.688H180.816L177.693 156.438V156.445C177.481 158.239 175.96 159.592 174.154 159.592H169.125C166.985 159.592 165.327 157.717 165.588 155.593L168.755 128.688H160.315C158.187 128.687 156.535 126.83 156.784 124.717L157.26 120.686C157.471 118.896 158.988 117.548 160.79 117.548H190.417Z" stroke="black" stroke-width="2.37"></path>
</g>
<path d="M190.296 125.411L190.771 121.379C190.937 119.971 189.837 118.734 188.42 118.732L190.418 118.732C191.836 118.732 192.937 119.97 192.771 121.379L192.296 125.411C192.155 126.604 191.144 127.503 189.942 127.503L187.961 127.503C189.154 127.494 190.156 126.598 190.296 125.411Z" fill="black" fill-opacity="0.1"></path>
<path d="M179.756 127.503L177.756 127.503L174.516 156.306C174.374 157.504 173.359 158.407 172.153 158.407H174.153C175.359 158.407 176.374 157.504 176.516 156.306L179.756 127.503Z" fill="black" fill-opacity="0.1"></path>
<g filter="url(#filter4_d_6_17)">
<path d="M200.513 158.385H195.485C194.056 158.385 192.949 157.134 193.124 155.716L197.229 120.844C197.376 119.652 198.389 118.756 199.59 118.756H204.436C205.86 118.756 206.965 119.999 206.799 121.413L202.875 156.284C202.734 157.482 201.719 158.385 200.513 158.385Z" fill="white"></path>
<path d="M204.437 117.571C206.57 117.572 208.226 119.433 207.976 121.552L207.975 121.551L204.053 156.417L204.052 156.423C203.841 158.217 202.32 159.569 200.513 159.569H195.485C193.344 159.569 191.686 157.696 191.948 155.571L196.052 120.705L196.053 120.699C196.273 118.913 197.79 117.571 199.59 117.571H204.437Z" stroke="black" stroke-width="2.37"></path>
</g>
<path d="M198.513 158.385H200.513C201.719 158.385 202.734 157.482 202.875 156.284L206.799 121.413C206.965 119.999 205.86 118.756 204.436 118.756H202.436C203.86 118.756 204.965 119.999 204.799 121.413L200.875 156.284C200.734 157.482 199.719 158.385 198.513 158.385Z" fill="black" fill-opacity="0.1"></path>
<g filter="url(#filter5_d_6_17)">
<path d="M155.837 155.149L105.637 174.392C103.258 175.32 102.782 178.334 104.686 180.188L115.63 189.694C117.057 190.853 117.295 193.172 115.867 194.563L102.544 209.169C101.355 210.56 101.355 212.647 102.782 214.038L106.589 217.284C108.016 218.443 110.158 218.443 111.585 217.052L124.286 202.779C125.476 201.388 127.855 201.156 129.283 202.547L139.751 211.821C141.654 213.444 145.369 212.415 146.082 209.865L160.595 159.554C161.071 156.54 158.454 154.222 155.837 155.149Z" fill="white"></path>
<path d="M155.502 154.207C158.945 152.987 162.157 156.067 161.582 159.71L161.573 159.771L161.556 159.831L147.043 210.142L147.042 210.141C146.567 211.828 145.136 212.924 143.648 213.366C142.164 213.807 140.38 213.672 139.102 212.582L139.095 212.576L139.087 212.569L128.619 203.296L128.602 203.28L128.584 203.264C127.595 202.299 125.882 202.451 125.046 203.429L125.04 203.437L125.033 203.444L112.332 217.717L112.309 217.743L112.282 217.768C110.475 219.528 107.762 219.524 105.958 218.06L105.949 218.053L105.94 218.045L102.133 214.799L102.109 214.777L102.084 214.754C100.265 212.981 100.266 210.295 101.784 208.52L101.795 208.507L101.806 208.495L115.128 193.889L115.149 193.867L115.169 193.847C116.138 192.902 115.995 191.28 114.999 190.471L114.974 190.449L104.03 180.943L104.008 180.925L103.988 180.904C101.635 178.611 102.127 174.688 105.274 173.461L105.28 173.459L155.479 154.216L155.49 154.211L155.502 154.207Z" stroke="black" stroke-width="2"></path>
</g>
<path d="M105.437 216.301L106.589 217.283C108.016 218.442 110.158 218.442 111.585 217.051L124.286 202.779C125.349 201.536 127.362 201.218 128.797 202.157L128.102 201.542C126.675 200.151 124.296 200.383 123.106 201.774L110.405 216.046C108.987 217.428 106.864 217.437 105.437 216.301Z" fill="black" fill-opacity="0.1"></path>
<path d="M138.868 211.039C140.837 212.332 144.224 211.282 144.902 208.859L159.415 158.549C159.611 157.306 159.281 156.181 158.642 155.353C159.992 156.077 160.891 157.681 160.595 159.554L146.082 209.864C145.369 212.414 141.654 213.444 139.751 211.821L138.868 211.039Z" fill="black" fill-opacity="0.1"></path>
</g>
<defs>
<filter id="filter0_d_6_17" x="72" y="107" width="159" height="69" filterUnits="userSpaceOnUse" color-interpolation-filters="sRGB">
<feFlood flood-opacity="0" result="BackgroundImageFix"></feFlood>
<feColorMatrix in="SourceAlpha" type="matrix" values="0 0 0 0 0 0 0 0 0 0 0 0 0 0 0 0 0 0 127 0" result="hardAlpha"></feColorMatrix>
<feOffset dx="3" dy="3"></feOffset>
<feComposite in2="hardAlpha" operator="out"></feComposite>
<feColorMatrix type="matrix" values="0 0 0 0 0 0 0 0 0 0 0 0 0 0 0 0 0 0 1 0"></feColorMatrix>
<feBlend mode="normal" in2="BackgroundImageFix" result="effect1_dropShadow_6_17"></feBlend>
<feBlend mode="normal" in="SourceGraphic" in2="effect1_dropShadow_6_17" result="shape"></feBlend>
</filter>
<filter id="filter1_d_6_17" x="86.5677" y="116.363" width="36.9241" height="46.7494" filterUnits="userSpaceOnUse" color-interpolation-filters="sRGB">
<feFlood flood-opacity="0" result="BackgroundImageFix"></feFlood>
<feColorMatrix in="SourceAlpha" type="matrix" values="0 0 0 0 0 0 0 0 0 0 0 0 0 0 0 0 0 0 127 0" result="hardAlpha"></feColorMatrix>
<feOffset dx="2.3695" dy="2.3695"></feOffset>
<feComposite in2="hardAlpha" operator="out"></feComposite>
<feColorMatrix type="matrix" values="0 0 0 0 0 0 0 0 0 0 0 0 0 0 0 0 0 0 1 0"></feColorMatrix>
<feBlend mode="normal" in2="BackgroundImageFix" result="effect1_dropShadow_6_17"></feBlend>
<feBlend mode="normal" in="SourceGraphic" in2="effect1_dropShadow_6_17" result="shape"></feBlend>
</filter>
<filter id="filter2_d_6_17" x="117.383" y="116.369" width="41.5268" height="46.7437" filterUnits="userSpaceOnUse" color-interpolation-filters="sRGB">
<feFlood flood-opacity="0" result="BackgroundImageFix"></feFlood>
<feColorMatrix in="SourceAlpha" type="matrix" values="0 0 0 0 0 0 0 0 0 0 0 0 0 0 0 0 0 0 127 0" result="hardAlpha"></feColorMatrix>
<feOffset dx="2.3695" dy="2.3695"></feOffset>
<feComposite in2="hardAlpha" operator="out"></feComposite>
<feColorMatrix type="matrix" values="0 0 0 0 0 0 0 0 0 0 0 0 0 0 0 0 0 0 1 0"></feColorMatrix>
<feBlend mode="normal" in2="BackgroundImageFix" result="effect1_dropShadow_6_17"></feBlend>
<feBlend mode="normal" in="SourceGraphic" in2="effect1_dropShadow_6_17" result="shape"></feBlend>
</filter>
<filter id="filter3_d_6_17" x="155.574" y="116.362" width="41.9533" height="46.7842" filterUnits="userSpaceOnUse" color-interpolation-filters="sRGB">
<feFlood flood-opacity="0" result="BackgroundImageFix"></feFlood>
<feColorMatrix in="SourceAlpha" type="matrix" values="0 0 0 0 0 0 0 0 0 0 0 0 0 0 0 0 0 0 127 0" result="hardAlpha"></feColorMatrix>
<feOffset dx="2.37" dy="2.37"></feOffset>
<feComposite in2="hardAlpha" operator="out"></feComposite>
<feColorMatrix type="matrix" values="0 0 0 0 0 0 0 0 0 0 0 0 0 0 0 0 0 0 1 0"></feColorMatrix>
<feBlend mode="normal" in2="BackgroundImageFix" result="effect1_dropShadow_6_17"></feBlend>
<feBlend mode="normal" in="SourceGraphic" in2="effect1_dropShadow_6_17" result="shape"></feBlend>
</filter>
<filter id="filter4_d_6_17" x="190.735" y="116.386" width="20.8202" height="46.7388" filterUnits="userSpaceOnUse" color-interpolation-filters="sRGB">
<feFlood flood-opacity="0" result="BackgroundImageFix"></feFlood>
<feColorMatrix in="SourceAlpha" type="matrix" values="0 0 0 0 0 0 0 0 0 0 0 0 0 0 0 0 0 0 127 0" result="hardAlpha"></feColorMatrix>
<feOffset dx="2.37" dy="2.37"></feOffset>
<feComposite in2="hardAlpha" operator="out"></feComposite>
<feColorMatrix type="matrix" values="0 0 0 0 0 0 0 0 0 0 0 0 0 0 0 0 0 0 1 0"></feColorMatrix>
<feBlend mode="normal" in2="BackgroundImageFix" result="effect1_dropShadow_6_17"></feBlend>
<feBlend mode="normal" in="SourceGraphic" in2="effect1_dropShadow_6_17" result="shape"></feBlend>
</filter>
<filter id="filter5_d_6_17" x="99.6801" y="152.928" width="64.9683" height="73.1975" filterUnits="userSpaceOnUse" color-interpolation-filters="sRGB">
<feFlood flood-opacity="0" result="BackgroundImageFix"></feFlood>
<feColorMatrix in="SourceAlpha" type="matrix" values="0 0 0 0 0 0 0 0 0 0 0 0 0 0 0 0 0 0 127 0" result="hardAlpha"></feColorMatrix>
<feOffset dx="2" dy="6"></feOffset>
<feComposite in2="hardAlpha" operator="out"></feComposite>
<feColorMatrix type="matrix" values="0 0 0 0 0 0 0 0 0 0 0 0 0 0 0 0 0 0 1 0"></feColorMatrix>
<feBlend mode="normal" in2="BackgroundImageFix" result="effect1_dropShadow_6_17"></feBlend>
<feBlend mode="normal" in="SourceGraphic" in2="effect1_dropShadow_6_17" result="shape"></feBlend>
</filter>
<clipPath id="clip0_6_17">
<rect width="300" height="300" fill="white"></rect>
</clipPath>
</defs>
</svg>