<svg width="310" height="56" viewBox="95 124 310 56" fill="none" xmlns="http://www.w3.org/2000/svg">
<path d="M266.793 149.024H254.64C253.223 149.024 252.124 147.788 252.29 146.381L254.229 129.953C254.395 128.546 253.296 127.31 251.879 127.31H247.355C246.16 127.31 245.152 128.201 245.006 129.387L242.509 150.008C242.009 154.231 245.308 157.943 249.56 157.943H265.695L263.624 174.776C263.45 176.187 264.551 177.432 265.973 177.432H270.975C272.175 177.432 273.185 176.534 273.326 175.342L278.72 129.953C278.886 128.546 277.787 127.31 276.37 127.31H271.548C270.353 127.31 269.345 128.201 269.199 129.387L266.793 149.024Z" fill="#FE4E01"></path>
<path d="M143.154 162.195C141.735 162.195 140.635 160.957 140.801 159.548L143.735 134.137C143.901 132.728 142.8 131.49 141.382 131.49H136.852C135.655 131.49 134.646 132.382 134.5 133.57L131.008 163.18C130.507 167.408 133.81 171.125 138.067 171.125H147.305L153.486 171.083C154.686 171.083 155.696 170.185 155.837 168.994L156.327 164.839C156.493 163.432 155.394 162.195 153.977 162.195H143.154Z" fill="#FE4E01"></path>
<path d="M128.591 131.492C130.007 131.492 131.107 132.729 130.941 134.136L130.466 138.163C130.326 139.354 129.316 140.252 128.116 140.252H118.606C115.01 140.252 111.982 142.941 111.556 146.511L110.604 154.492C110.1 158.716 113.4 162.432 117.654 162.432H124.944C126.361 162.432 127.46 163.669 127.294 165.076L126.833 168.994C126.692 170.185 125.682 171.083 124.482 171.083H115.381C106.88 171.083 100.284 163.664 101.279 155.222L102.599 144.029C103.441 136.88 109.501 131.492 116.7 131.492H128.591Z" fill="#FE4E01"></path>
<path d="M167.038 171.136H162.01C160.581 171.136 159.475 169.886 159.649 168.467L163.754 133.596C163.901 132.403 164.914 131.508 166.115 131.508H170.962C172.386 131.508 173.49 132.75 173.324 134.165L169.4 169.036C169.259 170.234 168.244 171.136 167.038 171.136Z" fill="#FE4E01"></path>
<path d="M202.217 131.492C203.634 131.492 204.733 132.729 204.568 134.136L204.093 138.163C203.953 139.354 202.943 140.252 201.743 140.252H192.233C188.637 140.252 185.609 142.941 185.183 146.511L184.231 154.492C183.727 158.716 187.026 162.432 191.281 162.432H198.571C199.988 162.432 201.087 163.669 200.921 165.076L200.459 168.994C200.319 170.185 199.309 171.083 198.109 171.083H189.008C180.507 171.083 173.911 163.664 174.906 155.222L176.225 144.029C177.068 136.88 183.128 131.492 190.327 131.492H202.217Z" fill="#FE4E01"></path>
<path d="M234.034 131.508C235.458 131.508 236.563 132.75 236.396 134.165L234.982 146.762C234.851 147.942 234.202 149.003 233.21 149.657L232.38 150.205L233.458 150.569C235.241 151.171 236.363 152.935 236.153 154.806L234.552 169.036C234.411 170.234 233.396 171.136 232.19 171.136H228.161C226.732 171.136 225.626 169.886 225.8 168.467L226.82 159.591C226.771 158.188 226.673 157.657 224.904 157.055H215.643L214.354 169.036C214.213 170.234 213.197 171.136 211.991 171.136H206.963C205.534 171.136 204.428 169.886 204.602 168.467L208.708 133.596C208.854 132.403 209.867 131.508 211.068 131.508H215.915C217.339 131.508 218.444 132.75 218.277 134.165L216.623 148.337H222.085L222.157 148.301C224.202 147.278 225.157 146.8 225.8 142.314L226.827 133.596C226.974 132.403 227.986 131.508 229.188 131.508H234.034Z" fill="#FE4E01"></path>
<path d="M313.333 134.159C313.499 132.752 312.4 131.516 310.983 131.516H299.093C291.894 131.516 285.834 136.903 284.991 144.053L283.672 155.246C282.677 163.688 289.273 171.107 297.773 171.107H306.875C308.075 171.107 309.085 170.209 309.225 169.017L309.687 165.099C309.853 163.692 308.754 162.455 307.337 162.455H300.046C295.792 162.455 292.493 158.739 292.997 154.515L293.949 146.534C294.375 142.964 297.403 140.276 300.998 140.276H310.508C311.708 140.276 312.718 139.378 312.859 138.186L313.333 134.159Z" fill="#FE4E01"></path>
<path d="M334.816 162.219H325.546C324.128 162.219 323.027 160.98 323.193 159.572L326.127 134.16C326.293 132.751 325.193 131.513 323.774 131.513H319.244C318.047 131.513 317.039 132.406 316.892 133.593L313.4 163.204C312.899 167.432 316.202 171.148 320.459 171.148H341.567C342.769 171.148 343.78 170.249 343.92 169.056L347.751 134.16C347.917 132.751 346.816 131.513 345.398 131.513H340.57C339.373 131.513 338.364 132.406 338.218 133.593L334.816 162.219Z" fill="#FE4E01"></path>
<path d="M386.023 134.154L385.548 138.187C385.407 139.38 384.396 140.279 383.195 140.279L373.009 140.278L369.768 169.082C369.627 170.279 368.612 171.182 367.406 171.182H362.377C360.948 171.182 359.842 169.931 360.017 168.513L363.341 140.278L353.568 140.278C352.149 140.278 351.048 139.04 351.214 137.631L351.689 133.6C351.83 132.407 352.841 131.508 354.043 131.508L383.67 131.508C385.089 131.508 386.189 132.746 386.023 134.154Z" fill="#FE4E01"></path>
<path d="M387.74 171.16H392.768C393.974 171.16 394.99 170.257 395.131 169.06L399.054 134.188C399.221 132.774 398.116 131.531 396.692 131.531H391.846C390.644 131.531 389.632 132.427 389.485 133.619L385.379 168.491C385.205 169.909 386.311 171.16 387.74 171.16Z" fill="#FE4E01"></path>
</svg>